<?xml version="1.0" encoding="UTF-8" standalone="no"?>
<!-- Created with Inkscape (http://www.inkscape.org/) -->

<svg
   version="1.1"
   id="svg1"
   width="512"
   height="512"
   viewBox="0 0 512 512"
   xml:space="preserve"
   xmlns="http://www.w3.org/2000/svg"
   xmlns:svg="http://www.w3.org/2000/svg"><defs
     id="defs1" /><g
     id="g1"><g
       id="g16"
       style="display:inline"><path
         style="display:inline;fill:#fbccb0"
         d="m 254.8239,263.8168 c -20.4552,-0.56478 -4.96422,-0.10221 -11.6989,-1.47831 -24.40919,-4.98752 -19.48536,-13.52734 8.125,-20.9842 12.27622,-3.3155 15.40778,-4.3858 17.02102,-5.81743 l 1.06231,-0.94272 v -0.83664 -0.83663 l -0.65438,-0.56288 c -0.98059,-0.84346 -2.82592,-1.44775 -7.93297,-2.59781 -5.1511,-1.15997 -7.0923,-1.89935 -7.53446,-2.86979 l -0.29085,-0.63836 0.47716,-0.52762 c 1.75469,-1.94021 10.19186,-3.59269 25.35217,-4.96542 1.71875,-0.15563 4.75625,-0.46155 6.75,-0.67983 l 3.625,-0.39687 13.125,-0.0286 13.125,-0.0286 v 5.5 l 0.39092,5.76061 -1.39092,0.19471 c -2.16121,0.30253 -5.20431,0.73422 -6.49768,1.08403 l -1.37798,0.82877 -0.65535,0.66218 -0.52503,1.44403 0.31522,1.3115 c 0.23692,0.98575 1.43949,1.68569 2.18628,2.356 l 0.86969,0.39637 20.32857,-0.1253 20.26342,0.0701 1.17726,-0.71674 1.17726,-0.71675 0.45349,-0.8863 0.25802,-1.01662 -0.2626,-1.37723 c -0.2312,-1.21255 -1.31038,-0.9723 -2.32303,-2.22013 l -0.992,-0.59061 -2.74096,-0.0155 c -1.40481,-0.008 -4.524,-0.34621 -6.54401,-0.3522 -2.02001,-0.006 -2.80356,1.01336 -3.52721,-0.45901 -0.64821,-1.31888 -1.49047,-6.92013 -0.76978,-9.32311 l -1.13701,-1.84306 3.13305,-0.18771 c 25.7681,-1.54386 45.82268,5.775 61.31297,28.69576 l 0.82775,1.22481 -0.2458,0.40019 c -1.082,1.76163 -17.61357,6.13892 -23.93591,6.33784 l -1.98135,0.0623 -0.90711,-1.59394 c -5.04987,-8.87336 -17.87398,-8.00401 -20.89518,1.41648 l -0.42414,1.32254 -0.90544,0.38639 c -0.49799,0.21251 -2.25544,0.75742 -3.90544,1.21092 -12.03439,3.30759 -22.3496,4.62909 -39.07525,5.00601 -3.25861,0.0734 -6.04635,0.0696 -8.67475,0.20705 -2.1576,0.1128 -11.93318,0.44124 -23.00193,0.34734 z"
         id="path19" /><path
         style="display:inline;fill:#fb8c6a"
         d="m 112.18935,416.38051 c -13.901752,-1.9756 -24.393244,-10.96409 -29.041599,-24.88111 -2.265514,-6.78288 -2.348053,-13.67597 -0.276894,-23.1244 0.361691,-1.65 1.502665,-7.10625 2.535498,-12.125 1.032832,-5.01875 2.202742,-10.7 2.5998,-12.625 0.397057,-1.925 1.276421,-6.03125 1.95414,-9.125 0.67772,-3.09375 1.747184,-8.04375 2.376587,-11 0.629403,-2.95625 1.833044,-8.58125 2.674758,-12.5 0.841714,-3.91875 2.023013,-9.4875 2.62511,-12.375 0.602097,-2.8875 1.61167,-7.66875 2.243496,-10.625 0.631824,-2.95625 1.757684,-8.27098 2.501904,-11.81052 2.17614,-10.34973 3.03433,-13.02982 6.35956,-19.86063 11.41842,-23.45615 32.05461,-35.8914 60.58798,-36.50997 6.93019,-0.15024 6.86776,-0.16466 6.26853,1.44846 -0.24677,0.6643 -0.41882,1.91059 -0.42984,3.11367 l -0.0184,2.00601 0.78982,1.6878 c 2.66633,5.69782 10.41446,8.69703 25.93518,10.0392 12.50255,1.08116 14.8932,3.13366 9.622,8.26098 -12.9432,12.5899 1.08293,24.30355 31.878,26.62229 9.45925,0.71224 49.8055,1.08403 52.60003,0.48471 4.98054,-1.06813 5.34777,-7.38994 0.52497,-9.03717 -0.7064,-0.24127 2.37883,-0.42402 9.375,-0.55533 17.44483,-0.32743 27.92782,-1.63542 40.25,-5.02211 3.41919,-0.93975 4.77431,-1.46586 4.95493,-1.92367 0.0692,-0.1753 0.0678,0.24378 -0.003,0.93128 -1.22426,11.89369 17.03926,16.75572 21.45185,4.23165 l 0.52203,-1.48165 -0.0962,-2.42309 -0.0962,-2.4231 0.31942,0.26509 c 1.63772,1.35919 24.43129,-4.20564 25.9175,-6.32751 l 0.34787,-0.49666 1.64149,2.82764 c 4.93877,8.50753 6.15461,12.18276 9.6608,29.20263 1.49219,7.24342 2.12151,10.22758 4.27047,20.25 0.66334,3.09375 1.72886,8.15625 2.3678,11.25 0.63895,3.09375 1.9906,9.39375 3.00367,14 1.01306,4.60625 2.4744,11.58125 3.2474,15.5 0.77301,3.91875 2.0206,9.9375 2.77243,13.375 3.99224,18.25328 4.08104,18.78467 4.08772,24.46073 l 0.005,4.21073 -0.5135,2.53927 c -5.71332,28.2523 -36.75718,39.25802 -57.96164,20.54865 -4.37021,-3.85598 -4.90471,-4.64106 -17.02688,-25.00938 -13.94499,-23.43114 -14.66065,-24.31314 -21.62298,-26.6486 l -1.75,-0.58703 -1.875,-0.007 -1.875,-0.007 -3.26334,1.54935 c -11.32589,5.37724 -22.86325,4.55968 -33.32861,-2.36175 -1.89437,-1.25287 -3.89117,-3.13545 -7.49111,-7.0626 l -1.26043,-1.375 -23.95325,-0.0777 c -13.17429,-0.0428 -25.12571,-0.002 -26.55871,0.0895 l -2.60546,0.16724 -3.51954,3.54776 c -5.7114,5.75719 -10.338,8.42393 -17.22557,9.9287 l -2.20602,0.48197 -4.20662,0.001 -4.20662,10e-4 -1.95508,-0.40383 c -2.98872,-0.61734 -5.674,-1.5342 -8.95429,-3.05736 -8.36648,-3.88487 -14.62072,-0.10821 -22.88887,13.82157 -1.55068,2.6125 -3.91572,6.55 -5.25565,8.75 -1.33993,2.2 -4.34299,7.20625 -6.67347,11.125 -7.10798,11.95221 -8.88424,14.38454 -13.01996,17.82891 -7.63535,6.35897 -18.14322,9.57632 -27.11305,8.3016 z m 90.26451,-198.80255 -2.53887,-0.023 2.13794,-0.71903 c 0.22746,-0.0765 0.77716,-0.30372 1.25841,-0.48785 8.80951,-3.37065 17.45991,-10.84612 23.5505,-20.90464 2.19284,-3.62145 3.66117,-5.12364 5.83775,-5.9724 l 1.42541,-0.55584 2.15279,-0.21462 2.09721,0.17442 1.42412,0.66755 c 1.95954,0.91851 3.17984,2.2358 5.98203,6.45745 6.49038,9.77812 10.51226,11.93197 16.13475,8.64069 1.05475,-0.61743 2.39316,-1.19389 2.97424,-1.28103 l 1.05652,-0.15843 0.9161,0.43472 c 0.93632,0.44431 1.40841,1.04688 4.10461,5.23905 0.7959,1.2375 2.11797,2.86875 2.93794,3.625 l 1.49086,1.375 3.23942,1.61301 6.86948,2.63557 -4.88007,-0.0713 c -1.50025,-0.0219 -77.26538,-0.4381 -78.17114,-0.4743 z"
         id="path18" /><path
         style="display:inline;fill:#1ea9b1"
         d="m 254.00894,263.83282 c -0.47561,-0.0892 -7.30027,-0.39822 -9.81383,-0.45396 -6.35362,-0.14089 -13.64571,-1.11793 -18.0627,-2.42014 -4.90665,-1.44658 -8.57958,-3.76083 -8.99892,-5.67005 -0.3222,-0.82847 0.09,-1.33955 0.44855,-2.0989 0.34143,-0.72312 1.68415,-2.579 2.98383,-4.12416 1.43704,-1.70847 2.56956,-3.26953 3.05649,-4.35456 l 0.69343,-1.54517 v -3.876 l -0.77104,-1.64767 c -1.01872,-2.17696 -2.76717,-3.83432 -5.38101,-5.10066 -3.13185,-1.51731 -5.21857,-1.9507 -14.66374,-3.04553 -20.23987,-2.34609 -25.55924,-6.62169 -11.14583,-10.41499 3.68811,-0.97063 6.21582,-1.58486 7.34154,-1.56794 12.46819,0.18739 23.41189,0.22429 42.48567,0.18741 l 39.04377,-0.0755 c 2.22685,0.2392 3.81505,0.48911 5.73256,0.94007 l 2.41729,0.54543 13.10432,0.13225 12.53365,0.20679 -13.31898,0.12086 -13.31899,0.12086 -3.125,0.38353 c -1.71875,0.21094 -4.5875,0.5142 -6.375,0.67391 -15.11175,1.35017 -23.71848,3.03108 -25.47717,4.97571 l -0.47716,0.52762 0.29085,0.63836 c 0.44216,0.97044 2.38336,1.70982 7.53446,2.86979 5.10705,1.15006 6.95238,1.75435 7.93297,2.59781 l 0.65438,0.56288 v 0.83663 0.83664 l -1.06231,0.94272 c -1.61324,1.43163 -4.7448,2.50193 -17.02102,5.81743 -27.61036,7.45686 -31.17926,16.67414 -8.125,20.9842 z"
         id="path17" /><path
         style="display:inline;fill:#014f5e"
         d="M 110.33438,426.10363 C 82.07298,421.98498 66.618178,396.27864 73.373072,364.625 c 0.35211,-1.65 1.310636,-6.2625 2.130056,-10.25 0.819421,-3.9875 1.774219,-8.54375 2.121774,-10.125 0.347554,-1.58125 0.906439,-4.225 1.241966,-5.875 0.335527,-1.65 0.966025,-4.63125 1.401107,-6.625 0.435082,-1.99375 0.88408,-4.13125 0.997773,-4.75 0.254564,-1.38541 1.310922,-6.30243 2.980864,-13.875 0.697411,-3.1625 1.53995,-7.1 1.872308,-8.75 0.332359,-1.65 1.0102,-4.9125 1.506314,-7.25 0.496113,-2.3375 1.338117,-6.33125 1.871119,-8.875 0.8688,-4.14635 1.533089,-7.24053 2.629947,-12.25 0.195693,-0.89375 0.650184,-3.03125 1.009982,-4.75 6.488447,-30.99528 29.344028,-54.03474 59.238718,-59.7153 10.48944,-1.99319 20.91096,-1.81417 28.67738,-0.7818 1.05671,0.14047 1.22687,0.62436 6.07263,-0.10474 15.66389,-2.35679 23.58119,-7.52965 31.3982,-20.51441 l 2.10179,-3.49125 1.88581,-1.90971 1.8858,-1.9097 2.3642,-1.16573 c 2.71179,-1.33712 4.31747,-1.79806 7.53207,-2.16222 l 2.28288,-0.25861 1.94786,0.2667 c 4.28458,0.58664 7.86363,2.04759 10.24363,4.1814 1.208,1.08304 2.03216,2.24273 5.82369,8.19466 0.67081,1.05303 1.66832,2.23648 2.22501,2.63974 l 1.00907,0.73097 h 0.94621 c 0.52042,0 1.26292,-0.12388 1.65,-0.27529 7.60444,-2.97462 12.50404,-1.1975 17.10869,6.20542 3.21884,5.17493 5.65062,6.69662 12.72008,7.95958 l 2.125,0.37963 12,0.12685 12,0.12685 0.39763,-0.32402 0.39763,-0.32402 0.30972,-3 c 0.17035,-1.65 0.40628,-3.50625 0.52431,-4.125 0.11802,-0.61875 0.39537,-2.30625 0.61633,-3.75 0.36656,-2.3951 0.58991,-3.67626 1.41647,-8.125 3.1781,-17.10541 8.94106,-34.83404 15.74449,-48.43487 2.98079,-5.95893 2.94787,-6.14091 -0.6687,-3.6959 -9.5619,6.46439 -21.35991,20.27167 -27.34821,32.00577 -3.11131,6.09663 -4.895,7.28972 -8.09477,5.41453 l -1.1328,-0.66387 -0.6702,-1.36983 -0.6702,-1.36984 -0.13135,-2.57361 c -0.75677,-14.82779 9.74813,-31.54795 24.24715,-38.59305 0.79062,-0.38417 1.4375,-0.8613 1.4375,-1.0603 v -0.36181 l -3.4375,0.15812 c -12.34135,0.56767 -28.36238,5.73506 -38.3125,12.35724 -4.95641,3.29869 -8.0204,2.89075 -9.39606,-1.25098 -0.86209,-2.59552 0.43668,-5.38809 5.12168,-11.01243 12.07274,-14.49334 34.78334,-19.75954 53.54566,-12.41634 3.04206,1.19061 3.03644,0.81764 -0.0317,-2.10206 -5.73815,-5.46059 -12.78288,-9.93095 -20.2451,-12.84687 -4.19798,-1.64039 -10.38668,-3.324967 -14.41213,-3.923004 -4.00935,-0.595643 -5.77793,-1.843985 -6.20653,-4.380841 l -0.17216,-1.019032 0.58565,-1.178672 c 1.13208,-2.278386 4.90905,-4.001407 11.08624,-5.057451 l 2.92411,-0.4999 4.28765,0.0015 c 16.72187,0.0057 30.3624,9.265198 36.63696,24.86987 1.17616,2.92507 1.28197,3.00194 2.17822,1.58226 11.49581,-18.209754 30.98535,-25.353385 49.6082,-18.183235 8.22204,3.165641 7.334,9.619015 -1.38691,10.078615 -6.37074,0.33573 -14.28739,2.23829 -20.89673,5.02197 -7.43209,3.13019 -20.03409,11.55288 -14.21195,9.49871 8.96044,-3.16143 24.4385,-1.69028 34.22544,3.25305 13.69967,6.91961 24.00872,23.4869 17.12505,27.52101 -2.16132,1.26661 -3.66754,0.84952 -7.24062,-2.00502 -8.2149,-6.56289 -20.80743,-12.59432 -30.25,-14.48881 C 369.28173,132.47833 366.41574,132 365.48731,132 H 364.5 v 0.34708 c 0,0.19089 0.70312,0.79327 1.5625,1.33862 13.38555,8.49435 21.50663,29.16062 17.03489,43.34984 l -0.60211,1.91054 -1.01071,0.91312 c -2.21863,2.0044 -4.63246,1.88285 -6.52537,-0.32859 l -0.88545,-1.03445 -1.05799,-3.68558 c -3.51481,-12.24401 -11.786,-24.72502 -23.16902,-34.96144 C 347.3066,137.56487 347.70002,137.19648 345.41385,144 338.84478,163.54926 335,186.21891 335,205.40226 v 4.06405 l 0.4375,0.11366 c 0.24062,0.0625 1.95625,0.12686 3.8125,0.14299 4.83603,0.042 8.89563,0.25708 12.625,0.66877 2.94449,0.32504 4.3265,0.53109 8.97144,1.33761 4.84197,0.84073 13.41319,3.76155 18.40807,6.27293 22.16543,11.14456 35.32329,30.40666 41.24035,60.37273 0.43441,2.2 1.3564,6.5875 2.04887,9.75 0.69246,3.1625 1.74321,8.05625 2.33498,10.875 0.59178,2.81875 1.60133,7.54375 2.24344,10.5 0.64211,2.95625 1.99442,9.425 3.00513,14.375 1.82104,8.91862 4.11531,19.88716 5.6214,26.875 1.49467,6.93487 3.78428,18.14234 4.26462,20.875 l 0.48338,2.75 0.002,4.71792 c 0.01,27.01779 -19.27737,47.33448 -44.87334,47.26936 l -5,-0.0127 -2.77752,-0.55064 c -14.90211,-2.9543 -25.24508,-10.91075 -34.51219,-26.54892 -1.10001,-1.85625 -4.13736,-6.975 -6.74968,-11.375 -2.61232,-4.4 -6.24973,-10.52743 -8.08315,-13.61652 -5.64813,-9.51643 -6.63625,-10.1239 -12.43798,-7.64658 -15.90088,6.78963 -33.76432,3.28009 -46.25521,-9.08752 l -1.7924,-1.7744 H 256.01005 234.0029 l -2.31395,2.15059 c -13.00615,12.08794 -30.17899,15.42843 -45.35252,8.82206 -3.40938,-1.4844 -3.92079,-1.60154 -5.35287,-1.22611 l -1.10856,0.29061 -1.625,1.68766 c -1.0985,1.14086 -2.28168,2.81558 -3.65181,5.16892 -2.93048,5.03342 -14.58733,24.3028 -17.49389,28.91831 -3.91978,6.22446 -5.52853,8.36236 -8.60717,11.43828 l -2.87788,2.87532 -2.99712,2.02229 c -10.58488,7.14207 -21.15434,9.82822 -32.28775,8.2057 z m 11.85533,-10.00122 c 5.95618,-1.02623 12.25954,-3.98164 17.11269,-8.0235 4.13572,-3.44437 5.91198,-5.8767 13.01996,-17.82891 2.33048,-3.91875 5.33354,-8.925 6.67347,-11.125 1.33993,-2.2 3.70497,-6.1375 5.25565,-8.75 8.26815,-13.92978 14.52239,-17.70644 22.88887,-13.82157 3.28029,1.52316 5.96557,2.44002 8.95429,3.05736 l 1.95508,0.40383 4.20662,-10e-4 4.20662,-10e-4 2.20602,-0.48197 c 6.88757,-1.50477 11.51417,-4.17151 17.22557,-9.9287 l 3.51954,-3.54776 2.60546,-0.16724 c 1.433,-0.092 13.38442,-0.13225 26.55871,-0.0895 l 23.95325,0.0777 1.26043,1.375 c 6.29102,6.86284 9.41658,9.07159 15.86605,11.21214 8.39631,2.7867 16.54882,2.20261 24.95367,-1.78779 l 3.26334,-1.54935 1.875,0.007 1.875,0.007 1.75,0.58703 c 6.96233,2.33546 7.67799,3.21746 21.62298,26.6486 12.12217,20.36832 12.65667,21.1534 17.02688,25.00938 21.20446,18.70937 52.24832,7.70365 57.96164,-20.54865 l 0.5135,-2.53927 -0.005,-4.21073 c -0.007,-5.67606 -0.0955,-6.20745 -4.08772,-24.46073 -0.75183,-3.4375 -1.99942,-9.45625 -2.77243,-13.375 -0.773,-3.91875 -2.23434,-10.89375 -3.2474,-15.5 -1.01307,-4.60625 -2.36472,-10.90625 -3.00367,-14 -0.63894,-3.09375 -1.70446,-8.15625 -2.3678,-11.25 -2.14896,-10.02242 -2.77828,-13.00658 -4.27047,-20.25 -3.04146,-14.76398 -3.87133,-17.68363 -6.70861,-23.60226 -10.26525,-21.4136 -26.90706,-33.786 -49.78695,-37.01425 -6.87926,-0.97063 -18.34255,-1.54276 -18.71864,-0.93424 -0.17566,0.28424 0.0965,6.73381 0.39779,9.42575 l 0.19585,1.75 5.5,0.16967 c 7.87329,0.24287 9.00238,0.56654 10.35172,2.96736 l 0.58121,1.03412 -0.13497,0.83173 c -0.20869,1.28604 -0.91058,2.13911 -2.28757,2.78032 l -1.26039,0.58692 -19.75,0.001 -19.75,0.001 -0.99436,-0.27606 c -0.5536,-0.15369 -1.41243,-0.69411 -1.9375,-1.21919 L 305.5,236.80882 V 235.767 c 0,-2.80782 1.85487,-4.03939 6.8434,-4.54379 1.52988,-0.15469 2.92434,-0.32172 3.09881,-0.37119 l 0.31721,-0.0899 -0.45812,-5.95415 -0.002,-5.36782 L 302.5,219.24275 289.375,219.1105 287,218.56807 c -3.54672,-0.81004 -4.30903,-1.08898 -8.11416,-2.96909 l -3.48916,-1.72398 -1.49111,-1.375 c -0.82011,-0.75625 -2.1423,-2.3875 -2.9382,-3.625 -2.6962,-4.19217 -3.16829,-4.79474 -4.10461,-5.23905 l -0.9161,-0.43472 -1.05652,0.15843 c -0.58108,0.0871 -1.91949,0.6636 -2.97424,1.28103 -5.62249,3.29128 -9.64437,1.13743 -16.13475,-8.64069 -2.80219,-4.22165 -4.02249,-5.53894 -5.98203,-6.45745 l -1.42412,-0.66755 -2.125,0.0201 -2.125,0.0201 -1.42541,0.55584 c -2.17658,0.84876 -3.64491,2.35095 -5.83775,5.9724 -8.37036,13.82353 -17.49894,20.29672 -33.72318,23.91353 -14.51906,3.23668 -9.86078,7.79502 10.36134,10.13905 9.44517,1.09483 11.53189,1.52822 14.66374,3.04553 2.61384,1.26634 4.36229,2.9237 5.38101,5.10066 l 0.77104,1.64767 v 1.938 1.938 l -0.69343,1.54517 c -0.42169,0.93965 -1.61945,2.64609 -3.05649,4.35456 -1.29968,1.54516 -2.6424,3.40104 -2.98383,4.12416 l -0.62077,1.31477 0.17222,0.78413 c 0.90772,4.1328 12.93945,7.75813 26.86651,8.09527 2.40625,0.0582 5.55625,0.22756 7,0.37626 1.51946,0.1565 10.83758,0.31844 22.125,0.38452 10.725,0.0628 20.4235,0.17813 21.55223,0.25631 l 2.05223,0.14214 1.11923,0.74135 c 3.59803,2.38324 2.48264,7.26322 -1.87366,8.19748 -2.79453,0.59932 -43.14078,0.22753 -52.60003,-0.48471 -30.79507,-2.31874 -44.8212,-14.03239 -31.878,-26.62229 5.2712,-5.12732 2.88055,-7.17982 -9.622,-8.26098 -15.52072,-1.34217 -23.26885,-4.34138 -25.93518,-10.0392 l -0.78982,-1.6878 0.0184,-2.00601 c 0.011,-1.20308 0.18307,-2.44937 0.42984,-3.11367 0.59923,-1.61312 0.66166,-1.5987 -6.26853,-1.44846 -28.53337,0.61857 -49.16956,13.05382 -60.58798,36.50997 -3.32523,6.83081 -4.18342,9.5109 -6.35956,19.86063 -0.74422,3.53954 -1.87008,8.85427 -2.501904,11.81052 -0.631826,2.95625 -1.641399,7.7375 -2.243496,10.625 -0.602097,2.8875 -1.783396,8.45625 -2.62511,12.375 -0.841714,3.91875 -2.045355,9.54375 -2.674758,12.5 -0.629403,2.95625 -1.698867,7.90625 -2.376587,11 -0.677719,3.09375 -1.557083,7.2 -1.95414,9.125 -0.397058,1.925 -1.566968,7.60625 -2.5998,12.625 -1.032833,5.01875 -2.173807,10.475 -2.535498,12.125 -2.536592,11.57169 -1.881597,19.38623 2.372427,28.3047 6.771929,14.1972 21.706806,22.04846 36.946426,19.42271 z"
         id="path16" /></g><circle
       style="display:inline;fill:#005061;fill-opacity:1;stroke:none;stroke-width:2.77503;stroke-linecap:round"
       id="path22-2-3-5"
       cx="262.63422"
       cy="249.46561"
       r="4.25" /><ellipse
       style="fill:#005061;fill-opacity:1;stroke:none;stroke-width:7.11429;stroke-linecap:round"
       id="path22-2-62"
       cx="362.15897"
       cy="258.81552"
       rx="11.1485"
       ry="10.648545" /><ellipse
       style="display:inline;fill:#005061;fill-opacity:1;stroke:none;stroke-width:4.28856;stroke-linecap:round"
       id="path22-2-4"
       cx="288.05981"
       cy="235.36082"
       rx="6.5680189"
       ry="6.5679998" /><ellipse
       style="display:inline;fill:#005061;fill-opacity:1;stroke:none;stroke-width:3.05089;stroke-linecap:round"
       id="path22-2-3"
       cx="305.62601"
       cy="250.39433"
       rx="4.6725001"
       ry="4.6724558" /><ellipse
       style="display:inline;fill:#005061;fill-opacity:1;stroke:none;stroke-width:7.11429;stroke-linecap:round"
       id="path22-2-62-9"
       cx="385.67279"
       cy="280.8013"
       rx="11.1485"
       ry="10.648545" /><ellipse
       style="display:inline;fill:#005061;fill-opacity:1;stroke:none;stroke-width:7.11429;stroke-linecap:round"
       id="path22-2-62-9-7"
       cx="361.82639"
       cy="303.15118"
       rx="11.1485"
       ry="10.648545" /><path
       id="rect21"
       style="display:inline;fill:#005061;fill-opacity:1;stroke:none;stroke-width:14.1445;stroke-linecap:round"
       d="m 151.61719,250.49609 c -5.52503,0 -9.97266,4.44763 -9.97266,9.97266 v 10.18164 h -10.18164 c -5.52503,0 -9.97266,4.44763 -9.97266,9.97266 v 0.0937 c 0,5.52503 4.44763,9.97265 9.97266,9.97265 h 10.18164 v 10.18164 c 0,5.52503 4.44763,9.97266 9.97266,9.97266 h 0.0937 c 5.52503,0 9.97265,-4.44763 9.97265,-9.97266 V 290.6894 h 10.18164 c 5.52504,0 9.97266,-4.44762 9.97266,-9.97265 v -0.0937 c 0,-5.52503 -4.44762,-9.97266 -9.97266,-9.97266 h -10.18164 v -10.18164 c 0,-5.52503 -4.44762,-9.97266 -9.97265,-9.97266 z" /><ellipse
       style="display:inline;fill:#005061;fill-opacity:1;stroke:none;stroke-width:15.0654;stroke-linecap:round"
       id="path22"
       cx="201.6378"
       cy="325.74466"
       rx="23.073"
       ry="23.072983" /><ellipse
       style="display:inline;fill:#005061;fill-opacity:1;stroke:none;stroke-width:15.0654;stroke-linecap:round"
       id="path22-5"
       cx="310.39584"
       cy="325.59811"
       rx="23.073"
       ry="23.072983" /><ellipse
       style="display:inline;fill:#005061;fill-opacity:1;stroke:none;stroke-width:7.11429;stroke-linecap:round"
       id="path22-2"
       cx="337.7562"
       cy="280.67099"
       rx="11.1485"
       ry="10.648545" /><rect
       style="display:inline;fill:#005061;fill-opacity:1;stroke:none;stroke-width:14.5241;stroke-linecap:round"
       id="rect22"
       width="24.424042"
       height="8.8705883"
       x="243.92964"
       y="320.18561"
       ry="4.4352942" /></g></svg>
