<?xml version="1.0" encoding="UTF-8" standalone="no"?>
<!-- Created with Inkscape (http://www.inkscape.org/) -->

<svg
   width="48"
   height="48"
   viewBox="0 0 48 48"
   version="1.1"
   id="svg1"
   xml:space="preserve"
   xmlns="http://www.w3.org/2000/svg"
   xmlns:svg="http://www.w3.org/2000/svg"><defs
     id="defs1" /><circle
     style="display:inline;fill:#155dfc;fill-opacity:1;stroke-width:18.0704;stroke-linecap:round"
     id="path7"
     cx="24"
     cy="24"
     r="24" /><path
     d="m 17.253115,38.01454 c -0.04512,-0.11226 -0.126993,-0.5919 -0.181946,-1.06587 -0.05495,-0.47397 -0.141073,-1.20874 -0.191378,-1.63282 -0.08734,-0.73627 -0.153319,-1.30518 -0.362951,-3.12958 -0.0516,-0.44902 -0.130632,-1.12256 -0.175637,-1.49675 -0.045,-0.37419 -0.126646,-1.06814 -0.181425,-1.54211 -0.05478,-0.47397 -0.137152,-1.16792 -0.183052,-1.54211 -0.0459,-0.37419 -0.128194,-1.10896 -0.182876,-1.63282 -0.05468,-0.52386 -0.135622,-1.1974 -0.179867,-1.49675 -0.04424,-0.29935 -0.130499,-0.94228 -0.191677,-1.42872 -0.167386,-1.33094 -0.227065,-1.25248 -0.534745,0.70302 -0.102051,0.64859 -0.247884,1.54664 -0.324075,1.99567 -0.07619,0.44903 -0.175367,1.04092 -0.220392,1.31533 -0.04502,0.2744 -0.122684,0.74384 -0.172576,1.04319 -0.04989,0.29935 -0.130271,0.7892 -0.17862,1.08855 -0.415527,2.57269 -0.529652,3.03886 -0.743962,3.03886 -0.09481,0 -0.172376,-0.016 -0.172376,-0.0356 0,-0.0196 -0.07804,-0.43797 -0.173431,-0.9298 -0.09539,-0.49184 -0.262186,-1.40451 -0.370664,-2.02816 -0.808221,-4.64652 -0.929756,-5.27676 -1.001713,-5.19453 -0.03335,0.0381 -0.131316,0.37544 -0.217713,0.74963 -1.102965,4.77702 -1.060707,4.72589 -1.8789346,2.27363 -0.643622,-1.92896 -0.631716,-1.91489 -0.981449,-1.15929 -0.408717,0.88303 -0.405816,0.88133 -1.5056556,0.88133 H 6 v -0.53369 c 0,-0.61571 0.038197,-0.64221 0.9285838,-0.64433 0.6014916,-0.001 0.4875622,0.1663 1.2238096,-1.8017 0.582633,-1.55738 0.715163,-1.5637 1.23932,-0.0591 0.173812,0.49892 0.386389,1.0704 0.472392,1.26997 l 0.1563696,0.36285 0.120822,-0.4082 c 0.06645,-0.22452 0.38479,-1.76669 0.707419,-3.42705 0.616235,-3.17136 0.622287,-3.19495 0.819725,-3.19495 0.144689,0 0.1286,-0.0741 0.865881,3.98865 0.537464,2.96169 0.582652,3.16644 0.677807,3.07129 0.04247,-0.0425 0.689122,-4.42622 1.135088,-7.69493 0.105508,-0.77332 0.287466,-2.09999 0.404352,-2.94815 0.116885,-0.84816 0.305194,-2.22511 0.418462,-3.05989 0.113269,-0.83478 0.235308,-1.56529 0.271198,-1.62336 0.136679,-0.2211499 0.337489,0.004 0.389646,0.436 0.107838,0.89412 0.425858,3.54651 0.511964,4.26993 0.341569,2.86971 0.988125,8.16707 1.093327,8.95784 0.0531,0.39913 0.134609,0.94681 0.181133,1.21707 0.04652,0.27025 0.08459,0.60501 0.08459,0.74391 0,0.39932 0.193064,1.19401 0.269498,1.10931 0.03811,-0.0422 0.182842,-0.54622 0.321631,-1.11998 1.497222,-6.18955 3.31849,-9.921666 5.354582,-9.28778 0.992425,0.382688 1.219447,-0.12412 1.220056,6.9973 l 5.44e-4,5.91898 h 0.212901 c 0.337966,0 0.57104,-0.27639 0.87203,-1.03409 0.628845,-1.58303 1.077487,-2.06237 2.180712,-2.32996 0.174622,-0.0424 3.358624,-0.08 7.075561,-0.0836 l 6.758067,-0.007 0.02776,0.97872 c 0.02649,0.93418 -0.06244,1.97165 -0.140274,1.63639 -0.03349,-0.14425 -3.742756,-0.26837 -3.742756,-0.12524 0,0.0184 0.265333,0.69112 0.58963,1.49488 0.784492,1.94433 0.768984,2.00939 -0.478933,2.00939 -1.518823,0 -1.681531,-0.13539 -2.469717,-2.0551 l -0.590129,-1.43733 -3.18221,-0.0238 -3.182209,-0.0238 -0.145502,0.29596 c -0.08003,0.16278 -0.315879,0.6603 -0.524117,1.10561 -0.965764,2.065258 -4.073431,3.637891 -5.755399,0.64175 l -0.04536,-4.80395 c -0.04358,-4.61561 -0.05158,-4.79444 -0.204102,-4.56149 -0.166598,0.261319 -0.269605,0.555902 -0.390564,0.84099 -0.772925,1.68979 -2.004719,6.39274 -3.230607,12.33436 -0.321619,1.55883 -0.335476,1.62403 -0.424096,1.99567 -0.04759,0.19957 -0.131635,0.58365 -0.186772,0.85351 -0.243802,1.19328 -0.435825,1.48883 -0.638959,0.98342 z m 10.249883,-12.9895 c -0.0932,-0.1123 2.360881,-6.42465 2.953919,-7.59803 0.531186,-1.05101 2.073382,-1.28758 2.943133,-0.45148 0.386122,0.37118 3.304743,7.50573 3.244373,7.93084 -0.03098,0.21818 -2.433146,0.37645 -2.635922,0.17367 -0.04474,-0.0447 -0.477272,-1.13789 -0.961174,-2.42921 -0.483903,-1.29133 -0.912677,-2.34787 -0.952834,-2.34787 -0.06643,0 -0.332044,0.6551 -1.526357,3.76456 l -0.400679,1.04319 -1.28339,0.016 c -0.957112,0.0119 -1.308224,-0.0139 -1.381069,-0.10168 z"
     style="fill:#ffffff;fill-opacity:1;stroke-width:0.0907123"
     id="path1" /></svg>
