<?xml version="1.0" encoding="UTF-8" standalone="no"?>
<!-- Created with Inkscape (http://www.inkscape.org/) -->

<svg
   width="48"
   height="48"
   viewBox="0 0 48 48"
   version="1.1"
   id="svg1"
   xml:space="preserve"
   xmlns:xlink="http://www.w3.org/1999/xlink"
   xmlns="http://www.w3.org/2000/svg"
   xmlns:svg="http://www.w3.org/2000/svg"><defs
     id="defs1"><linearGradient
       id="linearGradient9"><stop
         style="stop-color:#a78bfa;stop-opacity:1;"
         offset="0"
         id="stop9" /><stop
         style="stop-color:#60a5fa;stop-opacity:1;"
         offset="1"
         id="stop10" /></linearGradient><linearGradient
       xlink:href="#linearGradient9"
       id="linearGradient12"
       x1="0.18577674"
       y1="0.47880447"
       x2="47.812366"
       y2="47.795708"
       gradientUnits="userSpaceOnUse" /></defs><g
     id="layer1"><path
       d="M 24.068359,0 C 7.9518495,-5.367465e-4 8.7719416,-0.0128722 7.6074219,0.23828125 5.8598487,0.61518259 4.127506,1.5498429 2.9003906,2.7773438 1.482362,4.1958176 0.65084623,5.8248273 0.25976562,7.9433594 -0.01496022,9.4315833 0,8.4670353 0,23.990234 c 0,9.309047 0.01572955,14.417237 0.046875,14.734375 0.28170493,2.868462 1.2112155,4.953734 2.9453125,6.609375 0.7798562,0.744574 1.5148126,1.254872 2.46875,1.710938 0.8487397,0.405772 1.6116418,0.637235 2.953125,0.898437 0.1487224,0.02896 5.8531285,0.04728 15.6093755,0.05078 14.961989,0.0054 15.387685,0.0033 15.84375,-0.08398 1.043448,-0.199731 1.949098,-0.48705 2.669921,-0.847656 l 1.865235,-1.167969 c 0.433866,-0.388694 0.726938,-0.744899 1.267578,-1.242187 1.056598,-1.25199 1.783506,-2.855059 2.09375,-4.621094 C 48.010785,38.62456 47.998587,39.37019 47.998047,24.070315 47.99751,8.8265347 48.006246,9.3445627 47.765625,8.015625 47.377278,5.8708109 46.528776,4.1932866 45.134766,2.8105469 43.617597,1.3056449 41.857244,0.44277733 39.585938,0.09375 38.986442,0.00162653 38.734878,4.8845581e-4 24.068359,0 Z"
       style="display:inline;fill:url(#linearGradient12)"
       id="path1-8" /><path
       id="path1"
       style="fill:#ffffff;fill-opacity:1"
       d="m 24.269531,6.9472656 c 0.790474,0.013164 1.573652,0.056313 2.035157,0.125 1.491446,0.2219765 2.83182,0.5590996 4.115234,1.0351563 C 31.149357,8.3779916 31.388304,8.5562008 31.619141,9 c 0.105884,0.2035686 0.110955,0.7016713 0.0098,0.9414062 C 31.447679,10.370789 30.982703,10.686652 30.529332,10.6875 30.346647,10.687842 30.114833,10.62393 29.615269,10.435547 28.173558,9.8919105 26.840717,9.5654008 25.570312,9.4453125 25.389845,9.4282535 25.205276,9.40318 25.160156,9.390625 c -0.07578,-0.021079 -0.08288,0.037709 -0.08398,0.765625 -6.3e-4,0.433574 -0.02241,0.883984 -0.04883,1 -0.06811,0.299107 -0.238815,0.537073 -0.498047,0.689453 -0.415241,0.244085 -0.950994,0.164385 -1.287109,-0.191406 -0.230061,-0.243522 -0.248808,-0.33402 -0.273438,-1.318359 l -0.02344,-0.9355474 -0.210937,0.013672 c -0.387863,0.024071 -1.321336,0.1519776 -1.759766,0.2421875 -2.316936,0.4767279 -4.141867,1.3033539 -6.060547,2.7421879 -1.194399,0.895691 -2.711605,2.503448 -3.449218,3.65625 -0.349403,0.546075 -0.390815,0.610955 -0.484375,0.773437 -0.218189,0.378935 -0.598053,1.130474 -0.771485,1.523437 -0.5741389,1.300891 -1.0525468,3.133269 -1.1874996,4.550782 -0.039281,0.412592 -0.091944,0.393669 0.9999996,0.394531 0.889927,7.03e-4 1.019304,0.03177 1.285157,0.3125 0.402418,0.424935 0.417316,1.003608 0.03711,1.435547 -0.282056,0.320436 -0.45224,0.361328 -1.484375,0.361328 H 9 v 0.246094 c 3.262e-4,0.316005 0.1641287,1.43589 0.2890625,1.980468 0.7384595,3.218903 2.4135495,6.001865 4.9335935,8.19336 1.765264,1.535118 4.23226,2.782817 6.496094,3.285156 0.517962,0.114934 1.562032,0.283317 2.027344,0.326172 l 0.222656,0.01953 v -0.890625 c 0,-0.532157 0.02078,-0.96367 0.05273,-1.070312 0.122301,-0.408207 0.526571,-0.699219 0.970704,-0.699219 0.41425,0 0.768328,0.214524 0.955078,0.580078 0.09012,0.176419 0.09932,0.274296 0.103515,1.128906 l 0.0039,0.9375 0.210937,-0.01172 c 0.434265,-0.02563 1.309783,-0.160025 1.921875,-0.294922 3.53934,-0.780022 6.656698,-2.79973 8.859375,-5.738281 1.418071,-1.891822 2.443284,-4.271531 2.808594,-6.515626 0.109907,-0.675187 0.188373,-1.387166 0.158203,-1.441406 -0.01075,-0.01933 -0.402108,-0.03601 -0.871094,-0.03711 -0.58883,-0.0014 -0.907846,-0.02111 -1.029297,-0.06445 -0.438588,-0.156517 -0.707525,-0.545643 -0.703125,-1.013672 0.0027,-0.288078 0.0892,-0.503613 0.28711,-0.716797 0.250598,-0.269941 0.323942,-0.2871 1.365234,-0.3125 l 0.960938,-0.02344 -0.01563,-0.210938 c -0.04525,-0.64461 -0.297245,-1.974628 -0.617187,-3.257812 -0.119748,-0.480427 -0.118437,-0.706851 0.0059,-1.039063 0.170461,-0.455598 0.548831,-0.714897 1.039063,-0.716797 0.330182,-0.0013 0.524063,0.07429 0.78125,0.306641 0.32244,0.291304 0.446255,0.615571 0.75,1.964843 0.302282,1.342774 0.416961,2.137995 0.462891,3.230469 0.118306,2.814203 -0.377704,5.492824 -1.484376,8.023438 -1.063393,2.431653 -2.801251,4.701226 -4.882812,6.378906 -2.603996,2.098748 -5.339985,3.305985 -8.648438,3.814453 -0.87106,0.13387 -3.233994,0.171628 -4.171874,0.06641 -1.714812,-0.192385 -3.362722,-0.61433 -4.869141,-1.246093 C 13.795977,39.087734 10.898155,36.572637 8.9375,33.269531 8.3911802,32.34915 7.6512525,30.701348 7.3554688,29.742188 7.0431251,28.729329 6.725974,27.189271 6.6015625,26.085938 c -0.073048,-0.647823 -0.073221,-2.53778 0,-3.28125 0.1123292,-1.14056 0.4496282,-2.770854 0.796875,-3.847657 0.5710067,-1.770676 1.5603896,-3.674696 2.6738285,-5.152343 1.566228,-2.078546 3.763748,-3.9114905 6.099609,-5.085938 0.573362,-0.2882811 1.511644,-0.6705126 2.291016,-0.9335938 1.105166,-0.3730545 2.362349,-0.6370928 3.720703,-0.78125 0.496839,-0.052728 1.295463,-0.069804 2.085937,-0.056641 z m -0.291015,6.5781254 c 0.628987,4.48e-4 1.255834,0.02904 1.615234,0.08594 1.179935,0.186797 2.234547,0.516363 3.257812,1.017578 0.633363,0.310233 1.570313,0.907533 1.570313,1.001953 0,0.03418 -0.152511,0.197541 -0.337891,0.361329 -0.185378,0.163787 -0.588082,0.523632 -0.896484,0.800781 -0.540953,0.486128 -0.650588,0.556624 -0.710938,0.458984 -0.05017,-0.08117 -0.785005,-0.460129 -1.265624,-0.652344 -2.292801,-0.916963 -4.823343,-0.842738 -6.984376,0.205079 -0.531385,0.257652 -1.369944,0.792213 -1.669921,1.064453 -0.09365,0.08499 -0.302248,0.270312 -0.462891,0.412109 -0.329201,0.29058 -0.942146,1.030577 -1.248047,1.507812 -1.361784,2.124522 -1.687147,4.950978 -0.853515,7.421876 0.38397,1.138094 1.222642,2.444264 2.095703,3.265624 1.294205,1.217566 2.771447,1.949811 4.576171,2.269532 0.634879,0.112462 2.015934,0.115166 2.671876,0.0039 1.022858,-0.173497 1.810335,-0.428205 2.625,-0.849609 2.27833,-1.178522 3.874194,-3.331 4.382812,-5.908203 0.1308,-0.662778 0.175663,-1.85002 0.0957,-2.544922 -0.09865,-0.857358 -0.365003,-1.911927 -0.640625,-2.535157 L 31.681641,20.648438 31.908203,20.4375 c 0.124394,-0.116047 0.436818,-0.400781 0.693359,-0.632812 0.256543,-0.232031 0.555314,-0.503053 0.664063,-0.601563 l 0.197266,-0.177734 0.117187,0.177734 c 0.327508,0.497163 0.89156,2.021024 1.078125,2.912109 0.176983,0.845317 0.233269,1.41095 0.230469,2.330078 -0.0059,1.964381 -0.482654,3.765695 -1.431641,5.410157 -1.101972,1.909564 -2.55076,3.288504 -4.476562,4.259765 -1.055466,0.532315 -1.876953,0.808144 -3.046875,1.023438 -0.532576,0.09801 -0.818972,0.120862 -1.652344,0.132812 -1.152207,0.01653 -1.220992,0.01306 -2.015625,-0.11914 -2.540618,-0.422663 -4.834507,-1.694415 -6.480469,-3.59375 -1.165902,-1.345377 -1.905603,-2.759363 -2.332031,-4.457032 -0.450834,-1.794842 -0.419847,-3.964347 0.08008,-5.703124 0.345,-1.199933 1.00623,-2.585375 1.644531,-3.445313 1.766367,-2.379702 4.283049,-3.904045 7.169922,-4.34375 0.370113,-0.05639 1.001873,-0.08443 1.63086,-0.08398 z m 0.05859,5.863281 c 0.399968,-7.98e-4 0.787348,0.02623 1.017579,0.08008 0.430211,0.100621 0.820312,0.229694 0.820312,0.271484 0,0.03657 -0.909362,0.893987 -1.429688,1.347657 -0.291415,0.254085 -0.350611,0.286386 -0.529296,0.287109 -0.110658,4.5e-4 -0.363009,0.03342 -0.560547,0.07422 -1.061205,0.219199 -1.903114,0.935891 -2.248047,1.912109 -0.15821,0.447755 -0.201859,1.271193 -0.08984,1.71875 0.251081,1.003198 0.930943,1.750496 1.927734,2.121094 0.320421,0.119128 0.460282,0.142919 0.960938,0.162109 0.675412,0.02589 0.986476,-0.03548 1.525391,-0.296875 0.824334,-0.399841 1.435637,-1.153871 1.628906,-2.007812 0.06712,-0.296577 0.09379,-0.341078 0.322265,-0.539063 0.13697,-0.11869 0.377129,-0.330859 0.533204,-0.472656 0.511163,-0.464402 0.971042,-0.866289 1.007812,-0.880859 0.08433,-0.03342 0.185082,0.62236 0.185547,1.214843 0.0019,2.402141 -1.685783,4.461134 -4.029297,4.916016 -1.788637,0.347179 -3.457944,-0.157039 -4.714844,-1.423828 -0.626315,-0.631242 -0.989241,-1.233626 -1.216796,-2.021485 -0.319627,-1.106628 -0.261718,-2.26539 0.169921,-3.375 0.598786,-1.539287 1.975746,-2.679498 3.626953,-3.003906 0.279274,-0.05486 0.69183,-0.08319 1.091797,-0.08398 z" /><path
       d="m 35.804688,8.9238281 c 0.193163,-0.038633 0.36763,0.076221 0.46289,0.3027344 0.07989,0.1899684 0.07801,0.2533173 -0.06445,2.7324215 -0.04242,0.738284 -0.06542,1.37397 -0.05078,1.41211 0.02022,0.05268 0.155086,0.07644 0.558594,0.101562 0.848228,0.0528 3.478462,0.299718 3.580078,0.335938 0.24483,0.08727 0.36258,0.323576 0.27539,0.550781 -0.015,0.03908 -0.294489,0.320253 -0.621094,0.623047 -0.326604,0.302793 -0.920703,0.858413 -1.320312,1.236328 -1.26305,1.194482 -1.508791,1.405758 -1.710938,1.460938 -0.181895,0.04966 -0.834841,0.03992 -3.005859,-0.03906 l -0.802734,-0.0293 -0.580078,0.53125 c -0.319069,0.291475 -0.767756,0.699841 -0.998047,0.908203 -0.230292,0.208362 -0.81125,0.737501 -1.291016,1.175781 -0.479765,0.438282 -1.29284,1.176564 -1.80664,1.640626 -0.513801,0.464062 -1.071906,0.973414 -1.240235,1.130859 -1.060356,0.991791 -2.531727,2.288754 -2.681641,2.365234 -0.386185,0.197018 -0.939555,0.0667 -1.220703,-0.287109 -0.179198,-0.225515 -0.256387,-0.607214 -0.179687,-0.888672 0.06919,-0.253919 0.210565,-0.397322 1.828125,-1.851562 0.630885,-0.567187 1.2856,-1.157813 1.455078,-1.3125 0.169479,-0.154687 0.466202,-0.41836 0.658203,-0.585938 0.314214,-0.274245 1.511838,-1.348554 1.990234,-1.785156 0.103126,-0.09412 0.458766,-0.418972 0.791016,-0.720703 1.897061,-1.722818 2.045053,-1.863191 2.044922,-1.962891 -7e-5,-0.05578 0.03151,-0.502345 0.07031,-0.992188 0.0388,-0.489843 0.100759,-1.303274 0.136719,-1.808593 0.04447,-0.624961 0.08792,-0.962228 0.136719,-1.054688 0.08634,-0.163582 0.548389,-0.617322 1.554688,-1.523437 1.7345,-1.5618201 1.806913,-1.6211489 2.03125,-1.6660159 z"
       style="display:inline;fill:#ffc107;fill-opacity:1"
       id="path1-1" /></g></svg>
