<?xml version="1.0" encoding="UTF-8" standalone="no"?>
<!-- Created with Inkscape (http://www.inkscape.org/) -->

<svg
   width="24"
   height="24"
   viewBox="0 0 6.3499999 6.35"
   version="1.1"
   id="svg1"
   xml:space="preserve"
   xmlns="http://www.w3.org/2000/svg"
   xmlns:svg="http://www.w3.org/2000/svg"><defs
     id="defs1" /><g
     id="layer1"><rect
       style="fill:#252d30;fill-opacity:1;stroke-width:3.41844;stroke-linecap:round"
       id="rect8"
       width="6.3499999"
       height="6.3499999"
       x="-3.469447e-18"
       y="-6.9388939e-18"
       rx="1.5362494"
       ry="1.4672235" /><path
       style="fill:#ffccaa;stroke-width:3.175;stroke-linecap:round"
       d="M 2.5803862,1.8496573 3.8363263,1.8553673 4.8410785,1.010462 4.9780901,1.02188 5.0123431,1.113221 5.0237601,2.6717286 5.0865571,2.8429931 2.5746766,2.8601183 2.4376649,2.6032215 4.7668632,2.614639 4.77828,1.3929518 3.9619187,2.112263 2.5575493,2.1236805 1.6612647,2.7231067 1.4443296,3.2825708 2.2492731,3.5394675 2.2321466,3.7621114 1.6098853,3.8534525 1.7012264,4.0418435 2.220729,3.8020733 2.283526,3.9562113 1.8896175,4.1902729 2.3634494,4.5442198 2.4547905,4.2530699 2.6089287,4.3444109 2.534714,4.6526873 3.1741017,5.1036841 4.6869389,4.070388 H 3.3225311 L 3.168393,3.8306176 5.1036825,3.8249079 4.9381269,4.1959813 3.2768606,5.3320362 H 3.0770533 L 2.4433745,4.8981666 2.3919951,5.0637225 2.2036041,5.0009255 2.2835276,4.7782815 1.609887,4.3158671 1.1132197,4.5841816 0.99904332,4.3957906 1.4842929,4.1617291 1.3529901,3.8877057 0.77069057,3.9847557 0.73643764,3.7735293 1.2787754,3.7050236 1.1760167,3.3910386 0.78781703,3.2711532 0.85632284,3.0599268 1.2331049,3.1798122 1.4043695,2.6717273 V 1.0846756 l 0.062797,-0.074215 h 0.125594 z"
       id="path1" /><path
       style="fill:#ffccaa;stroke-width:3.175;stroke-linecap:round"
       d="M 2.6945627,3.0142563 5.1379371,3.019966 5.2007341,3.24261 2.8201567,3.271154 Z"
       id="path2" /><path
       style="fill:#ffccaa;stroke-width:3.175;stroke-linecap:round"
       d="m 2.9286242,3.4138737 2.266401,0.011417 -0.034253,0.2340618 -2.1008457,0.00571 z"
       id="path3" /><path
       style="display:none;fill:#ffccaa;stroke-width:3.175;stroke-linecap:round"
       d="M 3.4481267,4.2188172 4.418626,4.2359437 4.0932232,4.4700052 h -0.696476 z"
       id="path4" /><path
       style="display:none;fill:#ffccaa;stroke-width:3.175;stroke-linecap:round"
       d="M 3.8249087,4.6355611 3.3396592,4.6184346 3.1683946,5.1036841 Z"
       id="path5" /><path
       style="fill:#11b96c;fill-opacity:1;stroke:none;stroke-width:0.363451;stroke-linecap:round"
       d="M 10.422902,19.305934 C 9.7670896,18.85589 9.2280787,18.491732 9.2251008,18.496694 c -0.00298,0.005 -0.045006,0.1385 -0.093394,0.296753 -0.048388,0.158252 -0.092346,0.293721 -0.097683,0.301042 -0.00807,0.01108 -0.6350177,-0.176054 -0.6710796,-0.200304 -0.00637,-0.0043 0.05156,-0.183756 0.1287222,-0.398835 0.077162,-0.215079 0.1402952,-0.405645 0.1402952,-0.42348 0,-0.03483 -2.4990375,-1.762005 -2.5494342,-1.762005 -0.025949,0 -1.3755868,0.71862 -1.741834,0.927447 L 4.2139683,17.309568 4.015102,16.979506 C 3.9057255,16.797972 3.8162357,16.640385 3.8162357,16.629314 c 0,-0.01107 0.1533309,-0.09268 0.3407354,-0.181345 0.1874044,-0.08867 0.5960441,-0.284488 0.9080882,-0.435158 l 0.5673528,-0.273945 -0.2435858,-0.50955 c -0.1339722,-0.280252 -0.2529868,-0.51846 -0.264477,-0.52935 -0.01149,-0.01089 -0.4979207,0.06043 -1.0809567,0.158492 -0.583036,0.09806 -1.0740345,0.178527 -1.0911078,0.178811 -0.034369,5.72e-4 -0.1532393,-0.718781 -0.1236633,-0.748357 0.010204,-0.0102 0.4610929,-0.07493 1.0019754,-0.143827 0.5408825,-0.0689 0.9898382,-0.13169 0.9976794,-0.139531 0.015656,-0.01566 -0.3411032,-1.150249 -0.3727434,-1.185426 -0.010788,-0.012 -0.3396336,-0.120234 -0.7307668,-0.240532 -0.3911333,-0.120298 -0.7142598,-0.220357 -0.718059,-0.222352 -0.0038,-0.002 0.048142,-0.177706 0.1154259,-0.390467 0.079068,-0.250027 0.1350697,-0.38196 0.1583455,-0.373045 0.062535,0.02395 1.337191,0.422991 1.3633392,0.426802 0.013729,0.002 0.1738742,-0.431928 0.3558791,-0.964284 L 5.330615,10.088328 V 7.0943444 4.100361 l 0.1124203,-0.1344908 0.1124203,-0.1344907 0.228315,7.708e-4 0.2283151,7.708e-4 1.8689266,1.5893274 1.8689266,1.5893275 h 2.3894901 2.38949 l 1.768812,-1.4880968 c 0.972848,-0.8184531 1.823438,-1.5329347 1.890202,-1.5877368 0.120395,-0.098825 0.123408,-0.099502 0.368479,-0.082704 l 0.247091,0.016936 0.06271,0.171983 c 0.06126,0.168001 0.06317,0.23996 0.08248,3.1078958 l 0.01977,2.9359128 0.09878,0.272588 c 0.05433,0.149924 0.107655,0.294476 0.118501,0.321228 0.01799,0.04437 -0.228222,0.05036 -2.806164,0.06826 -1.554236,0.01079 -3.684537,0.02766 -4.734002,0.03747 l -1.9081174,0.01785 -0.247707,-0.475627 -0.247707,-0.4756262 4.3860904,0.022556 4.38609,0.022556 0.01794,-0.5568164 c 0.03005,-0.9328524 0.04482,-4.088867 0.01909,-4.0792221 -0.01327,0.00498 -0.714179,0.6167722 -1.557568,1.3595486 l -1.533432,1.3505027 -2.651494,0.021366 -2.6514949,0.021366 -1.686295,1.1233541 C 7.0435106,9.7549644 6.2807826,10.263674 6.276022,10.267585 c -0.013626,0.01119 -0.8242527,2.108044 -0.8242527,2.132098 0,0.01184 0.6827391,0.238846 1.5171978,0.504468 l 1.5171982,0.48295 -0.019031,0.257444 c -0.010467,0.141595 -0.026628,0.32654 -0.035913,0.410991 l -0.016883,0.153545 -0.9891111,0.14327 c -0.5440114,0.0788 -1.0737467,0.157523 -1.17719,0.174943 l -0.1880786,0.03167 0.1815907,0.36225 c 0.1467503,0.292749 0.1917819,0.359017 0.2347067,0.345393 0.029214,-0.0093 0.4670309,-0.208224 0.9729275,-0.442115 0.5058962,-0.233892 0.929088,-0.414474 0.9404259,-0.401293 0.040146,0.04667 0.2107664,0.501313 0.1966854,0.524097 -0.00786,0.01272 -0.3431635,0.217871 -0.7451109,0.455883 -0.574252,0.340042 -0.7215348,0.439716 -0.687501,0.465269 0.708549,0.531988 1.7595331,1.304598 1.7746484,1.304598 0.011111,0 0.096479,-0.24151 0.1897066,-0.53669 L 9.287539,16.099682 9.5276426,16.23859 c 0.1320569,0.0764 0.2562811,0.154357 0.2760538,0.173239 0.02761,0.02636 0.00401,0.166719 -0.1017266,0.604988 -0.075722,0.313862 -0.1259731,0.581168 -0.1116689,0.594015 0.014304,0.01285 0.5616641,0.400378 1.2163551,0.861182 l 1.190348,0.837825 2.671319,-1.823112 c 1.469226,-1.002711 2.759605,-1.885554 2.867511,-1.961872 l 0.196191,-0.138762 -2.586321,-0.01514 -2.586321,-0.01514 -0.269513,-0.419595 c -0.148233,-0.230777 -0.265248,-0.423105 -0.260034,-0.427394 0.02754,-0.02266 7.236441,-0.04198 7.227916,-0.01937 -0.0055,0.01457 -0.144405,0.326206 -0.308689,0.692517 l -0.298697,0.666019 -0.640218,0.437864 c -0.35212,0.240825 -1.760064,1.203402 -3.128766,2.139059 l -2.488547,1.701194 -0.388773,-9.53e-4 -0.388773,-9.52e-4 z"
       id="path6"
       transform="scale(0.26458333)" /><path
       style="fill:#11b96c;fill-opacity:1;stroke:none;stroke-width:0.363451;stroke-linecap:round"
       d="m 10.634468,12.275745 c -0.01593,-0.0419 -0.11973,-0.257313 -0.230669,-0.478703 l -0.201706,-0.402527 4.598552,0.02234 c 2.529205,0.01229 4.602113,0.02577 4.606463,0.02996 0.01566,0.01509 0.223226,0.780308 0.213779,0.788141 -0.0053,0.0044 -1.345358,0.02377 -2.977859,0.04301 -1.632501,0.01924 -3.645752,0.04376 -4.473891,0.05447 l -1.505707,0.01949 z"
       id="path7"
       transform="scale(0.26458333)" /><path
       style="fill:#11b96c;fill-opacity:1;stroke:none;stroke-width:0.363451;stroke-linecap:round"
       d="m 11.341216,13.385268 c -0.127644,-0.242558 -0.22574,-0.447353 -0.217992,-0.455101 0.0077,-0.0077 1.924329,-0.0047 4.25907,0.0068 3.854261,0.01898 4.243763,0.02533 4.231722,0.06893 -0.0073,0.02641 -0.03749,0.2218 -0.06711,0.434192 l -0.05385,0.386167 h -3.959878 -3.959879 z"
       id="path8"
       transform="scale(0.26458333)" /></g></svg>
