<?xml version="1.0" encoding="UTF-8" standalone="no"?>
<!-- Created with Inkscape (http://www.inkscape.org/) -->

<svg
   width="512"
   height="512"
   viewBox="0 0 135.46666 135.46667"
   version="1.1"
   id="svg1"
   xmlns="http://www.w3.org/2000/svg"
   xmlns:svg="http://www.w3.org/2000/svg">
  <defs
     id="defs1" />
  <g
     id="layer1">
    <path
       d="m 13.49375,109.14351 c 0,-0.0447 0.391416,-0.74048 0.869812,-1.54612 0.478399,-0.80563 1.117623,-1.90667 1.420509,-2.44674 0.30288,-0.54008 1.12746,-1.95409 1.832394,-3.14225 0.704938,-1.18816 1.708258,-2.896763 2.229608,-3.796885 0.852787,-1.472356 3.204091,-5.499632 4.510026,-7.724693 1.82626,-3.111604 3.16453,-5.4117 3.542244,-6.088107 0.241268,-0.432057 0.978078,-1.698776 1.637356,-2.81493 0.659277,-1.116151 1.897492,-3.23717 2.75159,-4.713368 1.992402,-3.443619 2.384588,-4.11819 4.643304,-7.986547 1.030133,-1.764242 2.312171,-3.973639 2.848979,-4.909768 0.536804,-0.936124 1.137997,-1.967175 1.335978,-2.291221 0.409542,-0.670312 2.70702,-4.591706 5.177786,-8.837568 0.921889,-1.584224 1.931855,-3.309638 2.244363,-3.834262 0.312508,-0.524627 0.568194,-0.981237 0.568194,-1.014682 0,-0.03349 -3.579214,-0.06219 -7.953811,-0.06386 l -7.953815,-0.0031 -1.130115,-1.928139 c -0.621561,-1.060475 -2.468261,-4.225908 -4.103776,-7.034292 -1.635514,-2.808385 -3.4617,-5.930994 -4.058194,-6.939132 -1.968522,-3.327019 -3.236601,-5.582885 -3.173654,-5.645828 0.08136,-0.08136 90.586062,-0.07076 90.667442,0.01062 0.0769,0.0769 -0.36822,0.854715 -6.70905,11.723313 -2.79374,4.788654 -5.847462,10.032281 -6.786048,11.652502 -0.938581,1.620222 -2.191891,3.770699 -2.785137,4.778837 -0.593249,1.008175 -2.328535,3.983494 -3.856195,6.611854 -1.527655,2.62836 -2.939517,5.043961 -3.137463,5.368003 -0.197947,0.324045 -1.613647,2.753947 -3.145997,5.399781 l -2.78609,4.810603 -3.549542,-0.08269 c -1.95225,-0.04548 -3.562876,-0.09275 -3.579173,-0.105043 -0.03296,-0.02483 3.188763,-5.663766 4.866051,-8.516987 0.592637,-1.008138 1.862844,-3.188072 2.822673,-4.844301 0.959838,-1.656224 2.657342,-4.572627 3.772238,-6.480883 1.114895,-1.908264 2.538762,-4.353328 3.16414,-5.43348 0.625383,-1.080144 1.658735,-2.847659 2.296341,-3.927807 0.637602,-1.080143 1.685971,-2.877121 2.329703,-3.993271 0.643731,-1.116154 1.656936,-2.854209 2.251572,-3.862347 1.408036,-2.387181 3.992207,-6.887744 3.992207,-6.952783 0,-0.0279 -15.524663,-0.04908 -34.499256,-0.04707 -18.974597,0.002 -34.499267,0.02292 -34.499267,0.04646 0,0.04227 1.289491,2.263045 3.941499,6.788103 l 1.361047,2.322325 9.704901,0.0016 9.704911,0.0016 2.687345,4.615173 c 2.547812,4.375546 3.701579,6.374523 5.49759,9.524941 1.189747,2.086952 2.474994,4.211438 2.519907,4.165336 0.02203,-0.02264 1.066477,-1.808646 2.320976,-3.968946 1.254504,-2.160292 3.651809,-6.269768 5.327348,-9.13216 l 3.046436,-5.204354 h 3.587665 c 2.10705,0 3.587659,0.04991 3.587659,0.120942 0,0.06652 -0.286831,0.611501 -0.637405,1.211074 -0.350583,0.599573 -1.214982,2.09172 -1.920886,3.315891 -0.705914,1.224167 -1.855321,3.197891 -2.554244,4.386051 -0.698918,1.188165 -1.681397,2.867302 -2.183282,3.731422 -0.501895,0.864119 -1.942733,3.33864 -3.201867,5.498936 -2.326012,3.99071 -3.709316,6.360319 -6.37792,10.925374 -0.439743,0.752247 -0.799533,1.415067 -0.799533,1.472928 0,0.2573 -0.284453,0.06416 -0.568142,-0.385772 -0.614343,-0.974297 -7.817866,-13.311122 -10.72194,-18.362472 -0.64169,-1.116159 -1.215927,-2.079862 -1.276084,-2.141567 -0.127568,-0.130846 -0.107028,-0.162538 -1.769408,2.730737 -0.703369,1.224172 -1.526266,2.63818 -1.828661,3.142251 -0.302396,0.504067 -1.128016,1.91808 -1.834716,3.142246 -0.706696,1.224163 -1.945889,3.345186 -2.753764,4.713368 -0.80787,1.36819 -1.618727,2.752745 -1.801896,3.07679 -0.332435,0.588091 -4.583168,7.908562 -8.476747,14.598357 -1.131592,1.944266 -2.497006,4.271494 -3.034243,5.171616 -1.656898,2.776074 -2.463032,4.171296 -2.463032,4.262905 0,0.04828 0.144679,-0.007 0.321514,-0.122864 1.444161,-0.94625 7.317192,-3.975929 9.498009,-4.899672 9.338279,-3.95548 17.847474,-6.200849 27.101886,-7.151527 4.365595,-0.44847 9.526187,-0.616836 12.699919,-0.414338 0.612084,0.03904 1.702056,0.10479 2.422151,0.146087 8.146088,0.467168 19.23536,3.195321 26.83842,6.602718 2.3506,1.053453 5.55087,2.656437 7.21047,3.611657 1.57672,0.907519 5.13144,3.174857 5.2316,3.336923 0.0396,0.06414 -0.23927,-0.01919 -0.6198,-0.185219 -0.97609,-0.425837 -4.22417,-1.515174 -6.84543,-2.295825 -1.22417,-0.364569 -2.40252,-0.718964 -2.61855,-0.787537 -1.68524,-0.534958 -7.53323,-1.834345 -11.19425,-2.487292 -6.404823,-1.142307 -15.50273,-1.751908 -21.727668,-1.455851 -11.236492,0.534412 -20.984181,2.249347 -30.90498,5.437192 -9.334116,2.999325 -17.753246,6.853075 -25.978748,11.891434 -2.610672,1.59911 -6.490345,4.18188 -7.800419,5.19288 -0.571267,0.44085 -0.785565,0.56705 -0.785565,0.46263 z"
       style="fill:#000000;stroke-width:0.494847"
       id="path1" />
  </g>
</svg>
